<?xml version="1.0" encoding="UTF-8" standalone="no"?>
<svg
   xmlns:dc="http://purl.org/dc/elements/1.1/"
   xmlns:cc="http://creativecommons.org/ns#"
   xmlns:rdf="http://www.w3.org/1999/02/22-rdf-syntax-ns#"
   xmlns:svg="http://www.w3.org/2000/svg"
   xmlns="http://www.w3.org/2000/svg"
   width="2000"
   height="2000"
   viewBox="0 0 2976.36 4209.6"
   version="1.1"
   id="svg12">
  <metadata
     id="metadata18">
    <rdf:RDF>
      <cc:Work
         rdf:about="">
        <dc:format>image/svg+xml</dc:format>
        <dc:type
           rdf:resource="http://purl.org/dc/dcmitype/StillImage" />
        <dc:title></dc:title>
      </cc:Work>
    </rdf:RDF>
  </metadata>
  <defs
     id="defs16" />
  <g
     transform="matrix(0.39169532,0,0,0.39169532,905.26686,1354.917)"
     id="g83">
    <g
       id="g10"
       transform="matrix(4.889755,0,0,4.8588182,-340.83026,-933.43896)">
      <rect
         style="opacity:0.16499999"
         id="rect2"
         ry="27.077999"
         height="622.81"
         width="622.81"
         y="219.09"
         x="64.956001" />
      <rect
         style="fill:#536878"
         id="rect4"
         ry="27.077999"
         height="622.81"
         width="622.81"
         y="214.78"
         x="60.645" />
      <path
         style="opacity:0.3;fill:#ffffff"
         id="path6"
         d="m 87.412,210.47 a 27.02,27.02 0 0 0 -27.079,27.078 v 269.66 a 796.81,775.93 0 0 0 311.4,61.773 796.81,775.93 0 0 0 311.4,-62.615 V 237.546 A 27.02,27.02 0 0 0 656.054,210.468 H 87.404 Z" />
      <path
         style="fill:#ffffff"
         id="path8"
         d="M 504.688,712.001 372.787,621.121 241.733,713.228 287.401,559.7 159.306,463.522 l 160.127,-4.011 51.885,-151.542 53.3,151.055 160.156,2.516 -127.193,97.368 z" />
    </g>
    <text
       id="text14"
       y="3739.7231"
       x="-65.190628"
       style="font-style:normal;font-weight:normal;font-size:650.44018555px;line-height:1.25;font-family:sans-serif;letter-spacing:0px;word-spacing:0px;fill:#000000;fill-opacity:1;stroke:none;stroke-width:16.26100349"
       xml:space="preserve"><tspan
         style="font-style:normal;font-variant:normal;font-weight:bold;font-stretch:normal;font-family:sans-serif;-inkscape-font-specification:'sans-serif Bold';stroke-width:16.26100349"
         y="3739.7231"
         x="-65.190628"
         id="tspan12">WEBAPP</tspan></text>
  </g>
</svg>
